<svg width="622" height="508" viewBox="0 0 622 508" fill="none" xmlns="http://www.w3.org/2000/svg">
<path fill-rule="evenodd" clip-rule="evenodd" d="M177 99L621.5 97V125L544.5 362.5H143.5V116.5L107 40.5H1V2.99998L107 1.5C118.092 0.952102 123.261 4.15091 131 9.99998C139.671 17.0971 151.892 42.9808 177 99ZM191 146L566 144L510 315.5H191V146Z" fill="black"/>
<path d="M621.5 97H622V96.4977L621.498 96.5L621.5 97ZM177 99L176.544 99.2045L176.677 99.5014L177.002 99.5L177 99ZM621.5 125L621.976 125.154L622 125.079V125H621.5ZM544.5 362.5V363H544.864L544.976 362.654L544.5 362.5ZM143.5 362.5H143V363H143.5V362.5ZM143.5 116.5H144V116.386L143.951 116.284L143.5 116.5ZM107 40.5L107.451 40.2835L107.315 40H107V40.5ZM1 40.5H0.5V41H1V40.5ZM1 2.99998L0.992925 2.50003L0.5 2.50701V2.99998H1ZM107 1.5L107.007 1.99995L107.016 1.99983L107.025 1.99939L107 1.5ZM131 9.99998L131.317 9.61306L131.309 9.60693L131.301 9.60109L131 9.99998ZM566 144L566.475 144.155L566.69 143.496L565.997 143.5L566 144ZM191 146L190.997 145.5L190.5 145.503V146H191ZM510 315.5V316H510.363L510.475 315.655L510 315.5ZM191 315.5H190.5V316H191V315.5ZM621.498 96.5L176.998 98.5L177.002 99.5L621.502 97.5L621.498 96.5ZM622 125V97H621V125H622ZM544.976 362.654L621.976 125.154L621.024 124.846L544.024 362.346L544.976 362.654ZM143.5 363H544.5V362H143.5V363ZM143 116.5V362.5H144V116.5H143ZM106.549 40.7164L143.049 116.716L143.951 116.284L107.451 40.2835L106.549 40.7164ZM1 41H107V40H1V41ZM0.5 2.99998V40.5H1.5V2.99998H0.5ZM106.993 1.00005L0.992925 2.50003L1.00707 3.49993L107.007 1.99995L106.993 1.00005ZM131.301 9.60109C127.431 6.67583 124.158 4.37663 120.444 2.88706C116.717 1.39259 112.578 0.723879 106.975 1.00061L107.025 1.99939C112.514 1.72822 116.505 2.38497 120.071 3.81519C123.65 5.25032 126.83 7.47506 130.699 10.3989L131.301 9.60109ZM177.456 98.7955C164.903 70.7882 155.566 50.3012 148.282 35.9282C144.64 28.7416 141.506 23.0732 138.736 18.7527C135.969 14.4387 133.546 11.4376 131.317 9.61306L130.683 10.3869C132.79 12.111 135.146 15.0067 137.894 19.2926C140.638 23.572 143.755 29.2064 147.39 36.3803C154.661 50.7282 163.989 71.1926 176.544 99.2045L177.456 98.7955ZM565.997 143.5L190.997 145.5L191.003 146.5L566.003 144.5L565.997 143.5ZM510.475 315.655L566.475 144.155L565.525 143.845L509.525 315.345L510.475 315.655ZM191 316H510V315H191V316ZM190.5 146V315.5H191.5V146H190.5Z" fill="black"/>
<path fill-rule="evenodd" clip-rule="evenodd" d="M243 508C276.689 508 304 480.689 304 447C304 413.311 276.689 386 243 386C209.311 386 182 413.311 182 447C182 480.689 209.311 508 243 508ZM243 473C257.359 473 269 461.359 269 447C269 432.641 257.359 421 243 421C228.641 421 217 432.641 217 447C217 461.359 228.641 473 243 473Z" fill="black"/>
<path fill-rule="evenodd" clip-rule="evenodd" d="M448 508C481.689 508 509 480.689 509 447C509 413.311 481.689 386 448 386C414.311 386 387 413.311 387 447C387 480.689 414.311 508 448 508ZM448 473C462.359 473 474 461.359 474 447C474 432.641 462.359 421 448 421C433.641 421 422 432.641 422 447C422 461.359 433.641 473 448 473Z" fill="black"/>
</svg>
